<svg width="24" height="25" viewBox="0 0 24 25" fill="none" xmlns="http://www.w3.org/2000/svg">
<g clip-path="url(#clip0_206_313)">
<path d="M12 1.35331C18.1561 1.35331 23.1467 6.34391 23.1467 12.5C23.1467 18.6561 18.1561 23.6467 12 23.6467C5.84391 23.6467 0.853313 18.6561 0.853313 12.5C0.853313 6.34391 5.84391 1.35331 12 1.35331ZM12 0.5C5.38322 0.5 0 5.88322 0 12.5C0 19.1168 5.38322 24.5 12 24.5C18.6168 24.5 24 19.1168 24 12.5C24 5.88322 18.6168 0.5 12 0.5Z" fill="#11161D"/>
<path d="M13.9527 2.89288C12.9749 2.71513 10.6104 6.30622 9.82827 8.49294C9.76883 8.65878 9.63271 9.26628 9.63271 9.42622C9.63271 9.42622 10.245 10.7439 10.4149 11.0529C10.1304 10.9048 9.54083 9.76325 9.54083 9.76325C9.2564 10.3055 8.98377 12.7951 9.07265 13.2574C9.07265 13.2574 9.70658 14.2007 9.95268 14.4366C9.6149 14.324 9.04602 13.5596 9.04602 13.5596C8.93933 13.8884 8.96015 14.5727 9.01049 14.804C9.43715 15.4262 10.006 15.4974 10.006 15.4974C10.006 15.4974 9.3838 21.7018 10.326 22.164C10.9127 22.0396 11.0549 15.2307 11.0549 15.2307C11.0549 15.2307 11.766 15.284 11.926 15.1062C12.2875 14.8573 13.1285 12.2727 13.1408 11.8998C13.1408 11.8998 12.1649 12.0828 11.6889 12.2677C12.0476 11.9114 13.1935 11.6722 13.1935 11.6722C13.5043 11.2992 14.1583 8.76153 14.2242 7.97928C14.2407 7.78306 14.2789 7.54269 14.2493 7.19197C14.2493 7.19197 13.3174 7.39606 13.123 7.32547C13.3203 7.30325 14.2727 6.93734 14.2727 6.93734C14.4415 5.41738 14.4937 2.99131 13.9527 2.89288ZM10.5421 18.9889C10.4676 20.8167 10.4208 21.333 10.3438 21.764C10.3083 21.8443 10.2727 21.8575 10.2371 21.7551C9.91115 20.2558 9.93487 8.96403 13.6505 3.82625C11.4895 7.77237 10.5066 15.3445 10.5421 18.9889Z" fill="#02C39A"/>
</g>
<defs>
<clipPath id="clip0_206_313">
<rect width="24" height="24" fill="white" transform="translate(0 0.5)"/>
</clipPath>
</defs>
</svg>
