<svg width="32" height="33" viewBox="0 0 32 33" fill="none" xmlns="http://www.w3.org/2000/svg">
<g clip-path="url(#clip0_206_313)">
<path d="M16 1.63775C24.2081 1.63775 30.8622 8.29187 30.8622 16.5C30.8622 24.7081 24.2081 31.3622 16 31.3622C7.79187 31.3622 1.13775 24.7081 1.13775 16.5C1.13775 8.29187 7.79187 1.63775 16 1.63775ZM16 0.5C7.17762 0.5 0 7.67762 0 16.5C0 25.3224 7.17762 32.5 16 32.5C24.8224 32.5 32 25.3224 32 16.5C32 7.67762 24.8224 0.5 16 0.5Z" fill="#11161D"/>
<path d="M18.6036 3.6905C17.2999 3.4535 14.1472 8.24163 13.1044 11.1572C13.0251 11.3784 12.8436 12.1884 12.8436 12.4016C12.8436 12.4016 13.66 14.1585 13.8865 14.5705C13.5072 14.373 12.7211 12.851 12.7211 12.851C12.3419 13.574 11.9784 16.8935 12.0969 17.5099C12.0969 17.5099 12.9421 18.7676 13.2702 19.0821C12.8199 18.932 12.0614 17.9127 12.0614 17.9127C11.9191 18.3512 11.9469 19.2636 12.014 19.572C12.5829 20.4016 13.3414 20.4965 13.3414 20.4965C13.3414 20.4965 12.5117 28.7691 13.768 29.3854C14.5502 29.2195 14.7399 20.1409 14.7399 20.1409C14.7399 20.1409 15.688 20.212 15.9014 19.975C16.3834 19.6431 17.5046 16.197 17.5211 15.6997C17.5211 15.6997 16.2199 15.9437 15.5852 16.1902C16.0635 15.7152 17.5914 15.3962 17.5914 15.3962C18.0057 14.8989 18.8777 11.5154 18.9656 10.4724C18.9876 10.2107 19.0385 9.89025 18.9991 9.42262C18.9991 9.42262 17.7565 9.69475 17.4974 9.60062C17.7604 9.571 19.0302 9.08312 19.0302 9.08312C19.2554 7.0565 19.325 3.82175 18.6036 3.6905ZM14.0561 25.1519C13.9567 27.5889 13.8944 28.2774 13.7917 28.852C13.7444 28.9591 13.697 28.9766 13.6495 28.8401C13.2149 26.8411 13.2465 11.7854 18.2006 4.935C15.3194 10.1965 14.0087 20.2926 14.0561 25.1519Z" fill="#02C39A"/>
</g>
<defs>
<clipPath id="clip0_206_313">
<rect width="32" height="32" fill="white" transform="translate(0 0.5)"/>
</clipPath>
</defs>
</svg>
