<svg width="32" height="33" viewBox="0 0 32 33" fill="none" xmlns="http://www.w3.org/2000/svg">
<path d="M26.0451 2.5H5.95506C4.55506 2.5 3.43506 3.62 3.43506 5.02V27.98C3.43506 29.38 4.55506 30.5 5.95506 30.5H26.0451C27.4451 30.5 28.5651 29.38 28.5651 27.98V5.02C28.5651 3.62 27.4451 2.5 26.0451 2.5ZM27.1651 27.98C27.1651 28.61 26.6751 29.1 26.0451 29.1H5.95506C5.32506 29.1 4.83506 28.61 4.83506 27.98V5.02C4.83506 4.39 5.32506 3.9 5.95506 3.9H26.0451C26.6751 3.9 27.1651 4.39 27.1651 5.02V27.98Z" fill="#11161D"/>
<path d="M21.0753 14.96C20.5153 14.4 19.4653 13.7 17.7153 13.7C15.8253 13.7 13.8653 14.19 12.4653 14.68V6.69999H9.66528V18.81L11.6253 17.9C11.6253 17.9 14.8453 16.43 17.6453 16.43C19.0453 16.43 19.3953 17.2 19.3953 17.9V26.3H22.1953V17.9C22.2653 17.69 22.2653 16.15 21.0753 14.96Z" fill="#02C39A"/>
<path d="M9.73486 26.3L12.8849 23.5L9.73486 20.7V26.3ZM17.3649 11.25H20.1649C21.4249 9.78004 22.0549 8.31004 22.2649 6.70004H19.4649C19.1849 8.31004 18.4849 9.78004 17.3649 11.25Z" fill="#02C39A"/>
</svg>
