<svg width="24" height="25" viewBox="0 0 24 25" fill="none" xmlns="http://www.w3.org/2000/svg">
<path d="M19.5337 2H4.46617C3.41617 2 2.57617 2.84 2.57617 3.89V21.11C2.57617 22.16 3.41617 23 4.46617 23H19.5337C20.5837 23 21.4237 22.16 21.4237 21.11V3.89C21.4237 2.84 20.5837 2 19.5337 2ZM20.3737 21.11C20.3737 21.5825 20.0062 21.95 19.5337 21.95H4.46617C3.99367 21.95 3.62617 21.5825 3.62617 21.11V3.89C3.62617 3.4175 3.99367 3.05 4.46617 3.05H19.5337C20.0062 3.05 20.3737 3.4175 20.3737 3.89V21.11Z" fill="#11161D"/>
<path d="M15.8063 11.345C15.3863 10.925 14.5988 10.4 13.2863 10.4C11.8688 10.4 10.3988 10.7675 9.34878 11.135V5.14999H7.24878V14.2325L8.71878 13.55C8.71878 13.55 11.1338 12.4475 13.2338 12.4475C14.2838 12.4475 14.5463 13.025 14.5463 13.55V19.85H16.6463V13.55C16.6988 13.3925 16.6988 12.2375 15.8063 11.345Z" fill="#02C39A"/>
<path d="M7.30103 19.85L9.66353 17.75L7.30103 15.65V19.85ZM13.0235 8.56253H15.1235C16.0685 7.46003 16.541 6.35753 16.6985 5.15003H14.5985C14.3885 6.35753 13.8635 7.46003 13.0235 8.56253Z" fill="#02C39A"/>
</svg>
