<svg width="24" height="25" viewBox="0 0 24 25" fill="none" xmlns="http://www.w3.org/2000/svg">
<g clip-path="url(#clip0_204_262)">
<path d="M12.0807 18.4845C11.9617 19.9471 11.8764 20.7969 11.5742 21.6326C11.5742 21.6326 11.7726 23.025 11.9119 24.5H12.4049C12.5225 23.4613 12.7021 22.4303 12.9427 21.4121C12.3045 21.1049 12.1052 19.7679 12.0807 18.4845Z" fill="#11161D"/>
<path d="M17.3098 10.0509C16.0173 4.47315 13.3234 2.98827 12.6363 1.93862C12.3529 1.47622 12.1019 0.995576 11.8849 0.499989C11.8486 0.995498 11.7819 1.30767 11.3514 1.68343C10.4869 2.43743 6.81549 5.36424 6.50651 11.7018C6.21864 17.6108 10.947 21.2544 11.5717 21.631C12.0521 21.8622 12.6371 21.6359 12.9224 21.4237C15.2018 19.8934 18.316 15.8137 17.3123 10.0509" fill="#02C39A"/>
<path opacity="0.3" d="M12.9416 21.4129C12.2966 21.1214 12.11 19.7563 12.0813 18.4845C12.2408 16.3865 12.2873 14.2818 12.2206 12.1791C12.1868 11.0758 12.2367 1.96008 11.9429 0.625507C12.1438 1.07751 12.3754 1.51591 12.636 1.93778C13.3231 2.98826 16.0178 4.47313 17.3095 10.0509C18.3157 15.8038 15.2184 19.8727 12.9416 21.4129Z" fill="#11161D"/>
</g>
<defs>
<clipPath id="clip0_204_262">
<rect width="24" height="24" fill="white" transform="translate(0 0.5)"/>
</clipPath>
</defs>
</svg>
