<svg width="32" height="33" viewBox="0 0 32 33" fill="none" xmlns="http://www.w3.org/2000/svg">
<g clip-path="url(#clip0_204_262)">
<path d="M16.1075 24.4794C15.9488 26.4295 15.8351 27.5625 15.4321 28.6769C15.4321 28.6769 15.6966 30.5334 15.8824 32.5H16.5397C16.6965 31.1151 16.9359 29.7404 17.2567 28.3829C16.4058 27.9732 16.1401 26.1905 16.1075 24.4794Z" fill="#11161D"/>
<path d="M23.0796 13.2346C21.3563 5.79753 17.7645 3.8177 16.8483 2.41816C16.4704 1.80163 16.1357 1.16077 15.8465 0.499985C15.7981 1.16066 15.7092 1.57689 15.1351 2.07791C13.9825 3.08324 9.08724 6.98565 8.67527 15.4357C8.29144 23.3143 14.5959 28.1725 15.4289 28.6746C16.0693 28.983 16.8494 28.6813 17.2298 28.3983C20.269 26.3579 24.4213 20.9183 23.083 13.2346" fill="#02C39A"/>
<path opacity="0.3" d="M17.2554 28.3839C16.3955 27.9952 16.1467 26.175 16.1084 24.4793C16.3211 21.6821 16.3831 18.8758 16.2942 16.0722C16.2491 14.6011 16.3155 2.44677 15.9238 0.667343C16.1918 1.27002 16.5005 1.85455 16.8479 2.41704C17.7642 3.81768 21.3571 5.79751 23.0793 13.2346C24.421 20.905 20.2912 26.3303 17.2554 28.3839Z" fill="#11161D"/>
</g>
<defs>
<clipPath id="clip0_204_262">
<rect width="32" height="32" fill="white" transform="translate(0 0.5)"/>
</clipPath>
</defs>
</svg>
