<svg width="24" height="25" viewBox="0 0 24 25" fill="none" xmlns="http://www.w3.org/2000/svg">
<path d="M23.25 12.5023C23.25 11.0227 21.3834 9.62053 18.5216 8.75101C19.182 5.85562 18.8885 3.55205 17.5952 2.81455C17.2971 2.64155 16.9485 2.55961 16.5679 2.55961V3.57481C16.7788 3.57481 16.9485 3.61579 17.0907 3.69318C17.7144 4.04827 17.985 5.40037 17.7741 7.13942C17.7236 7.56736 17.6411 8.01805 17.5402 8.47786C16.6413 8.25934 15.6598 8.09089 14.6279 7.98163C14.0088 7.13942 13.3667 6.3746 12.72 5.70538C14.2151 4.32598 15.6185 3.57026 16.5725 3.57026V2.55505C15.3113 2.55505 13.6602 3.44734 11.9908 4.99519C10.3214 3.45645 8.6704 2.57326 7.40919 2.57326V3.58847C8.35854 3.58847 9.76651 4.33963 11.2616 5.70994C10.6195 6.37915 9.97748 7.13942 9.36751 7.98163C8.33102 8.09089 7.34957 8.25934 6.45067 8.48241C6.34519 8.02716 6.26722 7.58557 6.21219 7.16218C5.99664 5.42313 6.26264 4.07104 6.88178 3.71139C7.01936 3.62944 7.19823 3.59302 7.40919 3.59302V2.57782C7.02395 2.57782 6.6754 2.65976 6.37271 2.83276C5.08398 3.57026 4.79505 5.86927 5.46005 8.75556C2.60742 9.62964 0.75 11.0273 0.75 12.5023C0.75 13.9818 2.61659 15.384 5.47839 16.2535C4.81798 19.1489 5.1115 21.4525 6.40481 22.19C6.70292 22.363 7.05147 22.4449 7.43671 22.4449C8.69792 22.4449 10.349 21.5526 12.0183 20.0048C13.6877 21.5435 15.3388 22.4267 16.6 22.4267C16.9852 22.4267 17.3338 22.3448 17.6365 22.1718C18.9252 21.4343 19.2141 19.1353 18.5491 16.249C21.3926 15.3794 23.25 13.9773 23.25 12.5023ZM17.2787 9.46575C17.109 10.053 16.8981 10.6585 16.6596 11.264C16.4716 10.8998 16.2744 10.5356 16.0588 10.1714C15.8478 9.80719 15.6231 9.45209 15.3984 9.1061C16.0496 9.2017 16.6779 9.32007 17.2787 9.46575ZM15.1782 14.3142C14.8205 14.9287 14.4536 15.5115 14.073 16.0532C13.3896 16.1124 12.6971 16.1443 12 16.1443C11.3075 16.1443 10.615 16.1124 9.9362 16.0578C9.55554 15.516 9.18406 14.9379 8.82634 14.3278C8.47778 13.7314 8.16133 13.126 7.8724 12.5159C8.15675 11.9059 8.47778 11.2959 8.82175 10.6995C9.17948 10.0849 9.54637 9.50217 9.92703 8.96042C10.6104 8.90124 11.3029 8.86937 12 8.86937C12.6925 8.86937 13.385 8.90124 14.0638 8.95587C14.4445 9.49762 14.8159 10.0758 15.1737 10.6858C15.5222 11.2822 15.8387 11.8877 16.1276 12.4977C15.8387 13.1077 15.5222 13.7178 15.1782 14.3142ZM16.6596 13.7223C16.9073 14.3324 17.1182 14.9424 17.2925 15.5342C16.6917 15.6799 16.0588 15.8028 15.403 15.8984C15.6277 15.5479 15.8524 15.1882 16.0634 14.8195C16.2744 14.4553 16.4716 14.0865 16.6596 13.7223ZM12.0092 18.5799C11.5827 18.1428 11.1561 17.6557 10.7342 17.1231C11.147 17.1413 11.5689 17.1549 11.9954 17.1549C12.4265 17.1549 12.853 17.1458 13.2704 17.1231C12.8576 17.6557 12.4311 18.1428 12.0092 18.5799ZM8.59702 15.8984C7.94578 15.8028 7.31747 15.6845 6.71667 15.5388C6.88636 14.9515 7.09733 14.346 7.33581 13.7405C7.52385 14.1047 7.72106 14.4689 7.93661 14.8331C8.15216 15.1973 8.3723 15.5524 8.59702 15.8984ZM11.9862 6.42468C12.4128 6.86172 12.8393 7.34884 13.2612 7.88148C12.8485 7.86327 12.4265 7.84961 12 7.84961C11.5689 7.84961 11.1424 7.85872 10.725 7.88148C11.1378 7.34884 11.5643 6.86172 11.9862 6.42468ZM8.59244 9.1061C8.36771 9.45664 8.14299 9.81629 7.93202 10.185C7.72106 10.5492 7.52385 10.9134 7.33581 11.2776C7.08816 10.6676 6.87719 10.0576 6.70291 9.46575C7.30371 9.32462 7.93661 9.2017 8.59244 9.1061ZM4.44191 14.8058C2.81839 14.1184 1.76814 13.217 1.76814 12.5023C1.76814 11.7875 2.81839 10.8816 4.44191 10.1987C4.83632 10.0303 5.26743 9.88003 5.71229 9.7389C5.97371 10.6312 6.31767 11.5599 6.74419 12.5114C6.32226 13.4583 5.98288 14.3824 5.72605 15.2702C5.27201 15.1291 4.84091 14.9743 4.44191 14.8058ZM6.9093 21.3114C6.28557 20.9563 6.01498 19.6042 6.22595 17.8651C6.2764 17.4372 6.35895 16.9865 6.45985 16.5267C7.35875 16.7452 8.3402 16.9136 9.3721 17.0229C9.99124 17.8651 10.6333 18.6299 11.28 19.2991C9.78486 20.6786 8.38147 21.4343 7.42754 21.4343C7.22116 21.4297 7.04688 21.3887 6.9093 21.3114ZM17.7878 17.8423C18.0034 19.5814 17.7374 20.9335 17.1182 21.2931C16.9806 21.3751 16.8018 21.4115 16.5908 21.4115C15.6415 21.4115 14.2335 20.6603 12.7384 19.29C13.3805 18.6208 14.0225 17.8606 14.6325 17.0183C15.669 16.9091 16.6504 16.7406 17.5493 16.5176C17.6548 16.9774 17.7374 17.419 17.7878 17.8423ZM19.5535 14.8058C19.1591 14.9743 18.728 15.1245 18.2831 15.2656C18.0217 14.3733 17.6777 13.4446 17.2512 12.4932C17.6732 11.5462 18.0125 10.6221 18.2694 9.73435C18.7234 9.87547 19.1545 10.0303 19.5581 10.1987C21.1816 10.8861 22.2319 11.7875 22.2319 12.5023C22.2273 13.217 21.177 14.123 19.5535 14.8058Z" fill="#02C39A"/>
<path d="M11.9954 14.5828C13.153 14.5828 14.0913 13.6513 14.0913 12.5023C14.0913 11.3532 13.153 10.4218 11.9954 10.4218C10.8379 10.4218 9.89954 11.3532 9.89954 12.5023C9.89954 13.6513 10.8379 14.5828 11.9954 14.5828Z" fill="#02C39A"/>
<ellipse cx="12" cy="12.5" rx="2.11448" ry="2.11448" fill="#11161D"/>
</svg>
