<svg width="32" height="33" viewBox="0 0 32 33" fill="none" xmlns="http://www.w3.org/2000/svg">
<path d="M30.9998 16.503C30.9998 14.5303 28.511 12.6607 24.6952 11.5013C25.5758 7.64082 25.1844 4.5694 23.46 3.58606C23.0625 3.3554 22.5978 3.24614 22.0903 3.24614V4.59975C22.3715 4.59975 22.5978 4.65438 22.7874 4.75757C23.619 5.23103 23.9798 7.03382 23.6985 9.35256C23.6312 9.92314 23.5212 10.5241 23.3866 11.1371C22.1881 10.8458 20.8795 10.6212 19.5036 10.4755C18.6781 9.35256 17.822 8.3328 16.9598 7.44051C18.9533 5.6013 20.8245 4.59368 22.0964 4.59368V3.24007C20.4148 3.24007 18.2134 4.42979 15.9875 6.49359C13.7617 4.44193 11.5603 3.26435 9.87868 3.26435V4.61796C11.1445 4.61796 13.0218 5.61951 15.0152 7.44658C14.1592 8.33887 13.3031 9.35256 12.4898 10.4755C11.1078 10.6212 9.79919 10.8458 8.60065 11.1432C8.46001 10.5362 8.35605 9.94742 8.28267 9.38291C7.99527 7.06417 8.34994 5.26138 9.17546 4.78185C9.35891 4.67259 9.59739 4.62403 9.87868 4.62403V3.27042C9.36502 3.27042 8.90029 3.37968 8.4967 3.61034C6.77839 4.59368 6.39315 7.65903 7.27982 11.5074C3.47632 12.6729 0.999756 14.5363 0.999756 16.503C0.999756 18.4758 3.48854 20.3453 7.30428 21.5047C6.42373 25.3652 6.81508 28.4366 8.5395 29.42C8.93698 29.6506 9.40171 29.7599 9.91537 29.7599C11.597 29.7599 13.7984 28.5702 16.0242 26.5064C18.2501 28.558 20.4514 29.7356 22.1331 29.7356C22.6467 29.7356 23.1115 29.6264 23.515 29.3957C25.2333 28.4124 25.6186 25.347 24.7319 21.4986C28.5232 20.3393 30.9998 18.4697 30.9998 16.503ZM23.0381 12.4543C22.8118 13.2374 22.5305 14.0447 22.2126 14.852C21.9618 14.3664 21.6989 13.8808 21.4115 13.3952C21.1302 12.9096 20.8306 12.4361 20.5309 11.9748C21.3993 12.1023 22.237 12.2601 23.0381 12.4543ZM20.2374 18.9189C19.7605 19.7383 19.2713 20.5153 18.7637 21.2376C17.8526 21.3165 16.9292 21.359 15.9998 21.359C15.0764 21.359 14.153 21.3165 13.248 21.2437C12.7405 20.5214 12.2452 19.7505 11.7682 18.9371C11.3035 18.1419 10.8815 17.3346 10.4963 16.5212C10.8754 15.7078 11.3035 14.8945 11.7621 14.0993C12.2391 13.2799 12.7283 12.5029 13.2358 11.7806C14.1469 11.7017 15.0703 11.6592 15.9998 11.6592C16.9231 11.6592 17.8465 11.7017 18.7515 11.7745C19.259 12.4968 19.7543 13.2677 20.2313 14.0811C20.696 14.8763 21.118 15.6836 21.5032 16.497C21.118 17.3103 20.696 18.1237 20.2374 18.9189ZM22.2126 18.1298C22.5428 18.9432 22.8241 19.7565 23.0564 20.5456C22.2554 20.7399 21.4115 20.9038 20.5371 21.0312C20.8367 20.5639 21.1363 20.0843 21.4176 19.5927C21.6989 19.1071 21.9618 18.6154 22.2126 18.1298ZM16.012 24.6065C15.4433 24.0237 14.8746 23.3743 14.312 22.6641C14.8624 22.6884 15.425 22.7066 15.9936 22.7066C16.5684 22.7066 17.1371 22.6944 17.6936 22.6641C17.1433 23.3743 16.5746 24.0237 16.012 24.6065ZM11.4625 21.0312C10.5941 20.9038 9.75638 20.746 8.95532 20.5517C9.18157 19.7687 9.46286 18.9614 9.78084 18.1541C10.0316 18.6397 10.2945 19.1253 10.5819 19.6109C10.8693 20.0965 11.1628 20.5699 11.4625 21.0312ZM15.9814 8.39957C16.5501 8.98229 17.1188 9.63178 17.6814 10.342C17.131 10.3177 16.5684 10.2995 15.9998 10.2995C15.4249 10.2995 14.8563 10.3116 14.2998 10.342C14.8501 9.63178 15.4188 8.98229 15.9814 8.39957ZM11.4563 11.9748C11.1567 12.4422 10.8571 12.9217 10.5758 13.4134C10.2945 13.899 10.0316 14.3846 9.78084 14.8702C9.45063 14.0568 9.16934 13.2434 8.93698 12.4543C9.73804 12.2662 10.5819 12.1023 11.4563 11.9748ZM5.9223 19.5744C3.7576 18.6579 2.35728 17.456 2.35728 16.503C2.35728 15.55 3.7576 14.3421 5.9223 13.4316C6.44819 13.207 7.02299 13.0067 7.61614 12.8185C7.9647 14.0083 8.42332 15.2465 8.99201 16.5152C8.42943 17.7777 7.97693 19.0099 7.63449 20.1936C7.02911 20.0054 6.4543 19.799 5.9223 19.5744ZM9.21215 28.2485C8.38051 27.775 8.01973 25.9722 8.30102 23.6535C8.36828 23.0829 8.47835 22.482 8.61288 21.8689C9.81142 22.1603 11.12 22.3848 12.4959 22.5305C13.3214 23.6535 14.1775 24.6732 15.0397 25.5655C13.0462 27.4047 11.1751 28.4124 9.90314 28.4124C9.62797 28.4063 9.3956 28.3517 9.21215 28.2485ZM23.7168 23.6231C24.0042 25.9419 23.6496 27.7447 22.8241 28.2242C22.6406 28.3334 22.4021 28.382 22.1208 28.382C20.855 28.382 18.9777 27.3805 16.9843 25.5534C17.8404 24.6611 18.6965 23.6474 19.5097 22.5245C20.8917 22.3788 22.2003 22.1542 23.3989 21.8568C23.5395 22.4698 23.6496 23.0586 23.7168 23.6231ZM26.0711 19.5744C25.5452 19.799 24.9704 19.9993 24.3773 20.1875C24.0287 18.9978 23.5701 17.7595 23.0014 16.4909C23.564 15.2283 24.0165 13.9961 24.3589 12.8125C24.9643 13.0006 25.5391 13.207 26.0772 13.4316C28.2419 14.3482 29.6422 15.55 29.6422 16.503C29.6361 17.456 28.2358 18.6639 26.0711 19.5744Z" fill="#02C39A"/>
<path d="M15.9937 19.277C17.5371 19.277 18.7882 18.0351 18.7882 16.503C18.7882 14.971 17.5371 13.729 15.9937 13.729C14.4503 13.729 13.1991 14.971 13.1991 16.503C13.1991 18.0351 14.4503 19.277 15.9937 19.277Z" fill="#02C39A"/>
<ellipse cx="15.9997" cy="16.5" rx="2.81931" ry="2.81931" fill="#11161D"/>
</svg>
