<svg width="32" height="33" viewBox="0 0 32 33" fill="none" xmlns="http://www.w3.org/2000/svg">
<path d="M19.9018 4.5H19.6211V4.7807V7.39117V7.67188H19.9018H22.5124H22.7931V7.39117V4.7807V4.5H22.5124H19.9018Z" fill="#11161D"/>
<path d="M11.5088 4.5C10.4982 4.5 9.51582 4.69652 8.5895 5.0895C7.69126 5.46845 6.89126 6.01582 6.20354 6.70354C5.51582 7.39126 4.96845 8.19126 4.5895 9.0895C4.19652 10.0158 4 10.9982 4 12.0088V23.0123V23.293H4.2807H6.89117H7.17188V23.0123V11.9667C7.22802 10.8299 7.70521 9.76321 8.50521 8.97725C9.31924 8.17725 10.3859 7.71398 11.5228 7.67188H17.3052H17.5859V7.39117V4.7807V4.5H17.3052H11.5088Z" fill="#02C39A"/>
<path d="M25.1088 14.9141H24.8281V15.1948V17.8053V18.086H25.1088H27.7193H28V17.8053V15.1948V14.9141H27.7193H25.1088Z" fill="#11161D"/>
<path d="M25.1088 9.70697H24.8281V9.98767V12.5983V12.879H25.1088H27.7193H28V12.5983V9.98767V9.70697H27.7193H25.1088Z" fill="#11161D"/>
<path d="M27.7193 4.5H25.1088H24.8281V4.7807V7.39117V7.67188H25.1088H27.7193H28V7.39117V4.7807V4.5H27.7193Z" fill="#11161D"/>
<path d="M25.1088 20.121H24.8281V20.4017V23.0123V23.293H25.1088H27.7193H28V23.0123V20.4017V20.121H27.7193H25.1088Z" fill="#11161D"/>
<path d="M25.1088 25.3281H24.8281V25.6088V28.2193V28.5H25.1088H27.7193H28V28.2193V25.6088V25.3281H27.7193H25.1088Z" fill="#11161D"/>
<path d="M19.9018 25.3281H19.6211V25.6088V28.2193V28.5H19.9018H22.5124H22.7931V28.2193V25.6088V25.3281H22.5124H19.9018Z" fill="#11161D"/>
<path d="M14.6948 25.3281H14.4141V25.6088V28.2193V28.5H14.6948H17.3052H17.5859V28.2193V25.6088V25.3281H17.3052H14.6948Z" fill="#11161D"/>
<path d="M9.48773 25.3281H9.20703V25.6088V28.2193V28.5H9.48773H12.0983H12.379V28.2193V25.6088V25.3281H12.0983H9.48773Z" fill="#11161D"/>
<path d="M4.2807 25.3281H4V25.6088V28.2193V28.5H4.2807H6.89117H7.17188V28.2193V25.6088V25.3281H6.89117H4.2807Z" fill="#11161D"/>
</svg>
