<svg width="24" height="25" viewBox="0 0 24 25" fill="none" xmlns="http://www.w3.org/2000/svg">
<path d="M7.39056 14.6097C8.57529 14.6097 9.53343 13.6515 9.53343 12.4668C9.53343 11.2821 8.57529 10.3239 7.39056 10.3239C6.20583 10.3239 5.24768 11.2821 5.24768 12.4668C5.24768 13.6515 6.20583 14.6097 7.39056 14.6097ZM2.32793 18.8954C3.51267 18.8954 4.47081 17.9373 4.47081 16.7525C4.47081 15.5678 3.51267 14.6097 2.32793 14.6097C1.1432 14.6097 0.185059 15.5678 0.185059 16.7525C0.185059 17.9373 1.1432 18.8954 2.32793 18.8954ZM21.6721 18.8954C22.8568 18.8954 23.815 17.9373 23.815 16.7525C23.815 15.5678 22.8568 14.6097 21.6721 14.6097C20.4873 14.6097 19.5292 15.5678 19.5292 16.7525C19.5292 17.9373 20.4873 18.8954 21.6721 18.8954Z" fill="#11161D"/>
<path d="M14.6348 12.5574C14.5636 11.8388 14.5312 11.2432 13.9809 10.8289C13.2882 10.298 12.4984 10.6411 11.5338 10.2915C10.5821 10.0585 9.87646 9.21686 9.87646 8.20692C9.87646 7.02219 10.854 6.06404 12.0582 6.06404C12.9516 6.06404 13.7155 6.58843 14.0522 7.34589C14.5701 8.32993 14.2334 9.32691 14.8808 9.83188C15.6512 10.4275 16.6871 9.99373 17.8459 10.557C18.2149 10.7253 18.5321 10.9972 18.7522 11.3338C18.9724 11.6705 19.1018 12.0719 19.1018 12.4991C19.1018 13.5091 18.3962 14.3507 17.4445 14.5838C16.4734 14.9334 15.6901 14.5902 14.9974 15.1211C14.214 15.7167 14.6348 16.7137 14.0004 17.7689C13.6378 18.4617 12.9063 18.9407 12.0582 18.9407C10.854 18.9407 9.87646 17.9826 9.87646 16.7978C9.87646 15.9368 10.3944 15.1923 11.1324 14.8557C12.2912 14.2924 13.3271 14.7262 14.0975 14.1306C14.5442 13.7745 14.6348 13.2437 14.6348 12.5574Z" fill="#02C39A"/>
</svg>
