<svg width="32" height="33" viewBox="0 0 32 33" fill="none" xmlns="http://www.w3.org/2000/svg">
<path d="M9.85416 19.3129C11.4338 19.3129 12.7113 18.0354 12.7113 16.4557C12.7113 14.8761 11.4338 13.5985 9.85416 13.5985C8.27452 13.5985 6.99699 14.8761 6.99699 16.4557C6.99699 18.0354 8.27452 19.3129 9.85416 19.3129ZM3.10399 25.0272C4.68364 25.0272 5.96116 23.7497 5.96116 22.17C5.96116 20.5904 4.68364 19.3129 3.10399 19.3129C1.52435 19.3129 0.246826 20.5904 0.246826 22.17C0.246826 23.7497 1.52435 25.0272 3.10399 25.0272ZM28.8962 25.0272C30.4758 25.0272 31.7534 23.7497 31.7534 22.17C31.7534 20.5904 30.4758 19.3129 28.8962 19.3129C27.3165 19.3129 26.039 20.5904 26.039 22.17C26.039 23.7497 27.3165 25.0272 28.8962 25.0272Z" fill="#11161D"/>
<path d="M19.5132 16.5766C19.4182 15.6184 19.3751 14.8243 18.6413 14.2718C17.7177 13.564 16.6646 14.0215 15.3785 13.5554C14.1096 13.2446 13.1687 12.1225 13.1687 10.7759C13.1687 9.19625 14.4721 7.91873 16.0777 7.91873C17.2689 7.91873 18.2874 8.61791 18.7363 9.62785C19.4269 10.9399 18.978 12.2692 19.8412 12.9425C20.8684 13.7366 22.2495 13.1583 23.7946 13.9093C24.2866 14.1337 24.7096 14.4963 25.0031 14.9451C25.2966 15.394 25.4692 15.9292 25.4692 16.4989C25.4692 17.8454 24.5283 18.9676 23.2594 19.2783C21.9646 19.7445 20.9202 19.287 19.9966 19.9948C18.9521 20.7889 19.5132 22.1182 18.6672 23.5253C18.1839 24.4489 17.2084 25.0876 16.0777 25.0876C14.4721 25.0876 13.1687 23.8101 13.1687 22.2305C13.1687 21.0824 13.8593 20.0897 14.8433 19.6409C16.3884 18.8899 17.7695 19.4682 18.7967 18.6741C19.3923 18.1994 19.5132 17.4915 19.5132 16.5766Z" fill="#02C39A"/>
</svg>
