<svg width="32" height="33" viewBox="0 0 32 33" fill="none" xmlns="http://www.w3.org/2000/svg">
<path d="M16 29.978C23.4437 29.978 29.478 23.9437 29.478 16.5C29.478 9.05629 23.4437 3.02197 16 3.02197C8.55629 3.02197 2.52197 9.05629 2.52197 16.5C2.52197 23.9437 8.55629 29.978 16 29.978Z" stroke="#11161D" stroke-width="1.5"/>
<path d="M12.2046 15.7113C15.6205 12.9205 18.9618 10.033 22.4521 7.32413C20.6213 10.1373 18.7386 12.913 16.9078 15.726C15.3376 15.7335 13.7675 15.7335 12.2046 15.7111V15.7113ZM15.0921 17.2665C16.6697 17.2665 18.24 17.2665 19.8102 17.2889C16.3721 20.0646 13.0456 22.9744 9.54785 25.6759C11.3786 22.8628 13.2613 20.0796 15.0921 17.2665Z" fill="#02C39A"/>
</svg>
