<svg width="24" height="25" viewBox="0 0 24 25" fill="none" xmlns="http://www.w3.org/2000/svg">
<path d="M12.0001 22.6085C17.5829 22.6085 22.1087 18.0828 22.1087 12.5C22.1087 6.91721 17.5829 2.39147 12.0001 2.39147C6.41734 2.39147 1.8916 6.91721 1.8916 12.5C1.8916 18.0828 6.41734 22.6085 12.0001 22.6085Z" stroke="#11161D" stroke-width="1.5"/>
<path d="M9.15345 11.9084C11.7154 9.81538 14.2214 7.64975 16.8391 5.6181C15.466 7.72794 14.0539 9.80975 12.6809 11.9195C11.5032 11.9251 10.3256 11.9251 9.15345 11.9083V11.9084ZM11.3191 13.0749C12.5023 13.0749 13.68 13.0749 14.8577 13.0917C12.2791 15.1735 9.7842 17.3558 7.16089 19.3819C8.53395 17.2721 9.94601 15.1847 11.3191 13.0749Z" fill="#02C39A"/>
</svg>
