<svg width="32" height="33" viewBox="0 0 32 33" fill="none" xmlns="http://www.w3.org/2000/svg">
<path d="M14.8273 4.53008C12.4726 4.78821 10.2586 5.69872 8.47139 7.13957C7.86628 7.62767 6.87654 8.64613 6.4403 9.2281C5.19726 10.8895 4.40453 12.7856 4.10432 14.8272C4.00112 15.5171 3.96829 16.836 4.03396 17.5259C4.23097 19.5581 4.87829 21.4354 5.9337 23.0358C7.87566 25.9879 10.8449 27.8794 14.3348 28.3956C15.0243 28.4989 16.3424 28.5317 17.032 28.466C19.063 28.2689 20.9393 27.6212 22.5389 26.5652C25.4893 24.6222 27.3797 21.6513 27.8957 18.1595C27.9989 17.4696 28.0317 16.1507 27.966 15.4608C27.7268 13.0015 26.8496 10.8238 25.3486 8.96058C24.8608 8.35514 23.8429 7.36485 23.2612 6.92837C21.6007 5.68464 19.7197 4.90085 17.6652 4.5911C17.0976 4.50662 15.3808 4.46907 14.8273 4.53008ZM19.0912 15.55C20.7189 18.3988 22.051 20.7361 22.051 20.7455C22.051 20.7549 19.382 20.7643 16.1173 20.7643C12.8525 20.7643 10.1835 20.7549 10.1835 20.7408C10.1835 20.7033 16.1079 10.3404 16.122 10.3592C16.1266 10.3639 17.4682 12.7012 19.0912 15.55Z" fill="#02C39A"/>
</svg>
